<?xml version="1.0" encoding="iso-8859-1"?>
<!-- Uploaded to: SVG Repo, www.svgrepo.com, Generator: SVG Repo Mixer Tools -->
<svg height="800px" width="800px" version="1.1" id="Layer_1" xmlns="http://www.w3.org/2000/svg" xmlns:xlink="http://www.w3.org/1999/xlink" 
	 viewBox="0 0 493.824 493.824" xml:space="preserve">
<path style="fill:#133E5B;" d="M468.224,424.112c0,49.6-98.4,54.4-220.8,54.4c-121.6,0-220.8-4.8-220.8-54.4s98.4-89.6,220.8-89.6
	C369.024,333.712,468.224,374.512,468.224,424.112z"/>
<path style="fill:#00233F;" d="M247.424,333.712c121.6,0,220.8,40,220.8,89.6s-98.4,54.4-220.8,54.4"/>
<path style="fill:#255B7A;" d="M206.624,364.112c4.8,10.4-23.2,28-62.4,37.6c-39.2,10.4-75.2,9.6-80-1.6
	c-4.8-10.4,23.2-28,62.4-37.6S201.024,353.712,206.624,364.112z"/>
<path style="fill:#133E5B;" d="M436.224,312.112c0,42.4-84.8,46.4-189.6,46.4c-104,0.8-188.8-4-188.8-46.4s84.8-76.8,189.6-76.8
	S436.224,269.712,436.224,312.112z"/>
<path style="fill:#00233F;" d="M247.424,235.312c104.8,0,189.6,34.4,189.6,76.8s-84.8,46.4-189.6,46.4"/>
<path style="fill:#255B7A;" d="M212.224,260.912c4,9.6-20,24-53.6,32.8s-64.8,8-68.8-0.8c-4-9.6,20-24,53.6-32.8
	S208.224,252.112,212.224,260.912z"/>
<path style="fill:#133E5B;" d="M407.424,208.112c0,36-72,40-160,40c-88.8,0-160-3.2-160-40c0-36,72-65.6,160-65.6
	S407.424,171.312,407.424,208.112z"/>
<path style="fill:#00233F;" d="M247.424,142.512c88.8,0,160,29.6,160,65.6s-72,40-160,40"/>
<path style="fill:#255B7A;" d="M217.824,164.112c3.2,8-16.8,20-45.6,27.2s-54.4,7.2-58.4-0.8s16.8-20,45.6-27.2
	S213.824,156.912,217.824,164.112z"/>
<path style="fill:#133E5B;" d="M367.424,123.312c0,27.2-53.6,29.6-120,29.6s-120-2.4-120-29.6s53.6-48.8,120-48.8
	C313.824,74.512,367.424,96.112,367.424,123.312z"/>
<path style="fill:#00233F;" d="M247.424,74.512c66.4,0,120,21.6,120,48.8s-53.6,29.6-120,29.6"/>
<path style="fill:#255B7A;" d="M225.024,91.312c2.4,5.6-12.8,15.2-33.6,20.8c-21.6,5.6-40.8,4.8-43.2-0.8
	c-2.4-5.6,12.8-15.2,33.6-20.8C202.624,84.912,222.624,84.912,225.024,91.312z"/>
<path style="fill:#357503;" d="M354.624,344.912L354.624,344.912L354.624,344.912L354.624,344.912c40.8,12.8,77.6,20.8,103.2-4
	c44.8-43.2,14.4-92,35.2-145.6l0,0l-0.8-0.8l0,0"/>
<path style="fill:#5EA304;" d="M354.624,344.912L354.624,344.912L354.624,344.912L354.624,344.912c-12.8-43.2-20.8-82.4,2.4-110.4
	c40-48.8,86.4-17.6,136-40.8l0,0l0.8,0.8l0,0"/>
<path style="fill:#357503;" d="M430.624,160.112h3.2h0.8l0,0c26.4,0,48.8-27.2,49.6-52.8c0.8-44-39.2-53.6-55.2-91.2l0,0h-0.8
	l-1.6-0.8"/>
<path style="fill:#5EA304;" d="M430.624,160.112L430.624,160.112L430.624,160.112L430.624,160.112c-35.2,0-56-28-59.2-53.6
	c-4-44,40.8-54.4,54.4-91.2l0,0l0,0l0,0"/>
<path style="fill:#357503;" d="M38.624,200.112L38.624,200.112h0.8l0,0c19.2,0,37.6-20.8,37.6-40c0.8-32-30.4-39.2-38.4-66.4v2.4
	l0,0l0,0"/>
<path style="fill:#5EA304;" d="M38.624,200.112L38.624,200.112L38.624,200.112L38.624,200.112c-23.2,0-36.8-23.2-38.4-42.4
	c-3.2-32,28.8-37.6,39.2-64.8l0,0l0,0l0,0"/>
</svg>